%TF.GenerationSoftware,KiCad,Pcbnew,(6.0.10-0)*%
%TF.CreationDate,2023-02-16T14:33:40-08:00*%
%TF.ProjectId,Exercise 2,45786572-6369-4736-9520-322e6b696361,rev?*%
%TF.SameCoordinates,Original*%
%TF.FileFunction,Copper,L1,Top*%
%TF.FilePolarity,Positive*%
%FSLAX46Y46*%
G04 Gerber Fmt 4.6, Leading zero omitted, Abs format (unit mm)*
G04 Created by KiCad (PCBNEW (6.0.10-0)) date 2023-02-16 14:33:40*
%MOMM*%
%LPD*%
G01*
G04 APERTURE LIST*
G04 Aperture macros list*
%AMRoundRect*
0 Rectangle with rounded corners*
0 $1 Rounding radius*
0 $2 $3 $4 $5 $6 $7 $8 $9 X,Y pos of 4 corners*
0 Add a 4 corners polygon primitive as box body*
4,1,4,$2,$3,$4,$5,$6,$7,$8,$9,$2,$3,0*
0 Add four circle primitives for the rounded corners*
1,1,$1+$1,$2,$3*
1,1,$1+$1,$4,$5*
1,1,$1+$1,$6,$7*
1,1,$1+$1,$8,$9*
0 Add four rect primitives between the rounded corners*
20,1,$1+$1,$2,$3,$4,$5,0*
20,1,$1+$1,$4,$5,$6,$7,0*
20,1,$1+$1,$6,$7,$8,$9,0*
20,1,$1+$1,$8,$9,$2,$3,0*%
G04 Aperture macros list end*
%TA.AperFunction,SMDPad,CuDef*%
%ADD10RoundRect,0.150000X-0.825000X-0.150000X0.825000X-0.150000X0.825000X0.150000X-0.825000X0.150000X0*%
%TD*%
%TA.AperFunction,SMDPad,CuDef*%
%ADD11R,2.290000X3.000000*%
%TD*%
%TA.AperFunction,SMDPad,CuDef*%
%ADD12RoundRect,0.250000X-0.450000X0.350000X-0.450000X-0.350000X0.450000X-0.350000X0.450000X0.350000X0*%
%TD*%
%TA.AperFunction,SMDPad,CuDef*%
%ADD13RoundRect,0.250000X-0.425000X0.537500X-0.425000X-0.537500X0.425000X-0.537500X0.425000X0.537500X0*%
%TD*%
%TA.AperFunction,SMDPad,CuDef*%
%ADD14RoundRect,0.250000X0.337500X0.475000X-0.337500X0.475000X-0.337500X-0.475000X0.337500X-0.475000X0*%
%TD*%
%TA.AperFunction,ComponentPad*%
%ADD15R,3.000000X3.000000*%
%TD*%
%TA.AperFunction,ComponentPad*%
%ADD16C,3.000000*%
%TD*%
%TA.AperFunction,SMDPad,CuDef*%
%ADD17RoundRect,0.250001X0.624999X-0.462499X0.624999X0.462499X-0.624999X0.462499X-0.624999X-0.462499X0*%
%TD*%
%TA.AperFunction,ViaPad*%
%ADD18C,0.800000*%
%TD*%
%TA.AperFunction,Conductor*%
%ADD19C,0.250000*%
%TD*%
%TA.AperFunction,Conductor*%
%ADD20C,0.508000*%
%TD*%
G04 APERTURE END LIST*
D10*
%TO.P,U1,1,GND*%
%TO.N,GND*%
X145861000Y-91059000D03*
%TO.P,U1,2,TR*%
%TO.N,/pin_2*%
X145861000Y-92329000D03*
%TO.P,U1,3,Q*%
%TO.N,/pin_3*%
X145861000Y-93599000D03*
%TO.P,U1,4,R*%
%TO.N,/9V*%
X145861000Y-94869000D03*
%TO.P,U1,5,CV*%
%TO.N,Net-(C2-Pad1)*%
X150811000Y-94869000D03*
%TO.P,U1,6,THR*%
%TO.N,/pin_2*%
X150811000Y-93599000D03*
%TO.P,U1,7,DIS*%
%TO.N,Net-(R1-Pad2)*%
X150811000Y-92329000D03*
%TO.P,U1,8,VCC*%
%TO.N,+9V*%
X150811000Y-91059000D03*
D11*
%TO.P,U1,9*%
%TO.N,N/C*%
X148336000Y-92964000D03*
%TD*%
D12*
%TO.P,R3,1*%
%TO.N,Net-(D1-Pad1)*%
X139155500Y-88879500D03*
%TO.P,R3,2*%
%TO.N,/pin_3*%
X139155500Y-90879500D03*
%TD*%
D13*
%TO.P,C1,1*%
%TO.N,/pin_2*%
X156972000Y-97526000D03*
%TO.P,C1,2*%
%TO.N,GND*%
X156972000Y-100401000D03*
%TD*%
D12*
%TO.P,R2,1*%
%TO.N,Net-(R1-Pad2)*%
X156972000Y-92446000D03*
%TO.P,R2,2*%
%TO.N,/pin_2*%
X156972000Y-94446000D03*
%TD*%
%TO.P,R4,1*%
%TO.N,/pin_3*%
X139171500Y-93959500D03*
%TO.P,R4,2*%
%TO.N,Net-(D2-Pad2)*%
X139171500Y-95959500D03*
%TD*%
%TO.P,R1,1*%
%TO.N,+9V*%
X156972000Y-87906000D03*
%TO.P,R1,2*%
%TO.N,Net-(R1-Pad2)*%
X156972000Y-89906000D03*
%TD*%
D14*
%TO.P,C2,1*%
%TO.N,Net-(C2-Pad1)*%
X146833500Y-103145500D03*
%TO.P,C2,2*%
%TO.N,GND*%
X144758500Y-103145500D03*
%TD*%
D15*
%TO.P,J1,1,Pin_1*%
%TO.N,+9V*%
X148336000Y-80772000D03*
D16*
%TO.P,J1,2,Pin_2*%
%TO.N,GND*%
X148336000Y-85852000D03*
%TD*%
D17*
%TO.P,D2,1,K*%
%TO.N,GND*%
X139192000Y-102543000D03*
%TO.P,D2,2,A*%
%TO.N,Net-(D2-Pad2)*%
X139192000Y-99568000D03*
%TD*%
%TO.P,D1,1,K*%
%TO.N,Net-(D1-Pad1)*%
X139155500Y-86457500D03*
%TO.P,D1,2,A*%
%TO.N,+9V*%
X139155500Y-83482500D03*
%TD*%
D18*
%TO.N,/pin_2*%
X143764000Y-92456000D03*
X152908000Y-99568000D03*
%TD*%
D19*
%TO.N,/pin_2*%
X152908000Y-99568000D02*
X152908000Y-93726000D01*
X156125000Y-93599000D02*
X156972000Y-94446000D01*
X150811000Y-93599000D02*
X153035000Y-93599000D01*
X145734000Y-92456000D02*
X143764000Y-92456000D01*
X156972000Y-94446000D02*
X156972000Y-97526000D01*
X152908000Y-93726000D02*
X153035000Y-93599000D01*
X153035000Y-93599000D02*
X156125000Y-93599000D01*
X145861000Y-92329000D02*
X145734000Y-92456000D01*
%TO.N,GND*%
X144758500Y-103145500D02*
X144156000Y-102543000D01*
%TO.N,Net-(C2-Pad1)*%
X146833500Y-98846500D02*
X150811000Y-94869000D01*
X146833500Y-103145500D02*
X146833500Y-98846500D01*
%TO.N,Net-(D1-Pad1)*%
X139155500Y-88879500D02*
X139155500Y-86457500D01*
D20*
%TO.N,+9V*%
X150811000Y-91059000D02*
X153819000Y-91059000D01*
X150811000Y-83247000D02*
X148336000Y-80772000D01*
X153819000Y-91059000D02*
X156972000Y-87906000D01*
D19*
X141866000Y-80772000D02*
X139155500Y-83482500D01*
X148336000Y-80772000D02*
X141866000Y-80772000D01*
D20*
X150811000Y-91059000D02*
X150811000Y-83247000D01*
D19*
%TO.N,Net-(D2-Pad2)*%
X139171500Y-99547500D02*
X139171500Y-95959500D01*
X139192000Y-99568000D02*
X139171500Y-99547500D01*
%TO.N,Net-(R1-Pad2)*%
X156972000Y-92446000D02*
X156855000Y-92329000D01*
X156972000Y-89906000D02*
X156972000Y-92446000D01*
X156855000Y-92329000D02*
X150811000Y-92329000D01*
%TO.N,/pin_3*%
X145500500Y-93959500D02*
X145861000Y-93599000D01*
X139171500Y-90895500D02*
X139155500Y-90879500D01*
X139171500Y-93959500D02*
X145500500Y-93959500D01*
X139171500Y-93959500D02*
X139171500Y-90895500D01*
%TD*%
%TA.AperFunction,Conductor*%
%TO.N,GND*%
G36*
X158945621Y-77744502D02*
G01*
X158992114Y-77798158D01*
X159003500Y-77850500D01*
X159003500Y-105537500D01*
X158983498Y-105605621D01*
X158929842Y-105652114D01*
X158877500Y-105663500D01*
X137286500Y-105663500D01*
X137218379Y-105643498D01*
X137171886Y-105589842D01*
X137160500Y-105537500D01*
X137160500Y-103052596D01*
X137809000Y-103052596D01*
X137809337Y-103059111D01*
X137819256Y-103154703D01*
X137822150Y-103168102D01*
X137873588Y-103322283D01*
X137879762Y-103335462D01*
X137965063Y-103473307D01*
X137974099Y-103484708D01*
X138088830Y-103599239D01*
X138100241Y-103608251D01*
X138238245Y-103693318D01*
X138251423Y-103699462D01*
X138405716Y-103750639D01*
X138419081Y-103753505D01*
X138513439Y-103763172D01*
X138519855Y-103763500D01*
X138919885Y-103763500D01*
X138935124Y-103759025D01*
X138936329Y-103757635D01*
X138938000Y-103749952D01*
X138938000Y-103745385D01*
X139446000Y-103745385D01*
X139450475Y-103760624D01*
X139451865Y-103761829D01*
X139459548Y-103763500D01*
X139864096Y-103763500D01*
X139870611Y-103763163D01*
X139966203Y-103753244D01*
X139979602Y-103750350D01*
X140133783Y-103698912D01*
X140146962Y-103692738D01*
X140187593Y-103667595D01*
X143663001Y-103667595D01*
X143663338Y-103674114D01*
X143673257Y-103769706D01*
X143676149Y-103783100D01*
X143727588Y-103937284D01*
X143733761Y-103950462D01*
X143819063Y-104088307D01*
X143828099Y-104099708D01*
X143942829Y-104214239D01*
X143954240Y-104223251D01*
X144092243Y-104308316D01*
X144105424Y-104314463D01*
X144259710Y-104365638D01*
X144273086Y-104368505D01*
X144367438Y-104378172D01*
X144373854Y-104378500D01*
X144486385Y-104378500D01*
X144501624Y-104374025D01*
X144502829Y-104372635D01*
X144504500Y-104364952D01*
X144504500Y-103417615D01*
X144500025Y-103402376D01*
X144498635Y-103401171D01*
X144490952Y-103399500D01*
X143681116Y-103399500D01*
X143665877Y-103403975D01*
X143664672Y-103405365D01*
X143663001Y-103413048D01*
X143663001Y-103667595D01*
X140187593Y-103667595D01*
X140284807Y-103607437D01*
X140296208Y-103598401D01*
X140410739Y-103483670D01*
X140419751Y-103472259D01*
X140504818Y-103334255D01*
X140510962Y-103321077D01*
X140562139Y-103166784D01*
X140565005Y-103153419D01*
X140574672Y-103059061D01*
X140575000Y-103052645D01*
X140575000Y-102873385D01*
X143663000Y-102873385D01*
X143667475Y-102888624D01*
X143668865Y-102889829D01*
X143676548Y-102891500D01*
X144486385Y-102891500D01*
X144501624Y-102887025D01*
X144502829Y-102885635D01*
X144504500Y-102877952D01*
X144504500Y-101930616D01*
X144500025Y-101915377D01*
X144498635Y-101914172D01*
X144490952Y-101912501D01*
X144373905Y-101912501D01*
X144367386Y-101912838D01*
X144271794Y-101922757D01*
X144258400Y-101925649D01*
X144104216Y-101977088D01*
X144091038Y-101983261D01*
X143953193Y-102068563D01*
X143941792Y-102077599D01*
X143827261Y-102192329D01*
X143818249Y-102203740D01*
X143733184Y-102341743D01*
X143727037Y-102354924D01*
X143675862Y-102509210D01*
X143672995Y-102522586D01*
X143663328Y-102616938D01*
X143663000Y-102623355D01*
X143663000Y-102873385D01*
X140575000Y-102873385D01*
X140575000Y-102815115D01*
X140570525Y-102799876D01*
X140569135Y-102798671D01*
X140561452Y-102797000D01*
X139464115Y-102797000D01*
X139448876Y-102801475D01*
X139447671Y-102802865D01*
X139446000Y-102810548D01*
X139446000Y-103745385D01*
X138938000Y-103745385D01*
X138938000Y-102815115D01*
X138933525Y-102799876D01*
X138932135Y-102798671D01*
X138924452Y-102797000D01*
X137827115Y-102797000D01*
X137811876Y-102801475D01*
X137810671Y-102802865D01*
X137809000Y-102810548D01*
X137809000Y-103052596D01*
X137160500Y-103052596D01*
X137160500Y-102270885D01*
X137809000Y-102270885D01*
X137813475Y-102286124D01*
X137814865Y-102287329D01*
X137822548Y-102289000D01*
X138919885Y-102289000D01*
X138935124Y-102284525D01*
X138936329Y-102283135D01*
X138938000Y-102275452D01*
X138938000Y-102270885D01*
X139446000Y-102270885D01*
X139450475Y-102286124D01*
X139451865Y-102287329D01*
X139459548Y-102289000D01*
X140556885Y-102289000D01*
X140572124Y-102284525D01*
X140573329Y-102283135D01*
X140575000Y-102275452D01*
X140575000Y-102033404D01*
X140574663Y-102026889D01*
X140564744Y-101931297D01*
X140561850Y-101917898D01*
X140510412Y-101763717D01*
X140504238Y-101750538D01*
X140418937Y-101612693D01*
X140409901Y-101601292D01*
X140295170Y-101486761D01*
X140283759Y-101477749D01*
X140145755Y-101392682D01*
X140132577Y-101386538D01*
X139978284Y-101335361D01*
X139964919Y-101332495D01*
X139870561Y-101322828D01*
X139864144Y-101322500D01*
X139464115Y-101322500D01*
X139448876Y-101326975D01*
X139447671Y-101328365D01*
X139446000Y-101336048D01*
X139446000Y-102270885D01*
X138938000Y-102270885D01*
X138938000Y-101340615D01*
X138933525Y-101325376D01*
X138932135Y-101324171D01*
X138924452Y-101322500D01*
X138519904Y-101322500D01*
X138513389Y-101322837D01*
X138417797Y-101332756D01*
X138404398Y-101335650D01*
X138250217Y-101387088D01*
X138237038Y-101393262D01*
X138099193Y-101478563D01*
X138087792Y-101487599D01*
X137973261Y-101602330D01*
X137964249Y-101613741D01*
X137879182Y-101751745D01*
X137873038Y-101764923D01*
X137821861Y-101919216D01*
X137818995Y-101932581D01*
X137809328Y-102026939D01*
X137809000Y-102033356D01*
X137809000Y-102270885D01*
X137160500Y-102270885D01*
X137160500Y-86970400D01*
X137772000Y-86970400D01*
X137772337Y-86973646D01*
X137772337Y-86973650D01*
X137782181Y-87068520D01*
X137782974Y-87076165D01*
X137838950Y-87243945D01*
X137932022Y-87394348D01*
X138057197Y-87519305D01*
X138063427Y-87523145D01*
X138063428Y-87523146D01*
X138200590Y-87607694D01*
X138207762Y-87612115D01*
X138302618Y-87643577D01*
X138360978Y-87684007D01*
X138388215Y-87749571D01*
X138375682Y-87819453D01*
X138329254Y-87870314D01*
X138329012Y-87870464D01*
X138231152Y-87931022D01*
X138106195Y-88056197D01*
X138013385Y-88206762D01*
X137957703Y-88374639D01*
X137947000Y-88479100D01*
X137947000Y-89279900D01*
X137957974Y-89385666D01*
X137960155Y-89392202D01*
X137960155Y-89392204D01*
X137962701Y-89399834D01*
X138013950Y-89553446D01*
X138107022Y-89703848D01*
X138112204Y-89709021D01*
X138193609Y-89790284D01*
X138227688Y-89852566D01*
X138222685Y-89923386D01*
X138193764Y-89968475D01*
X138118440Y-90043931D01*
X138106195Y-90056197D01*
X138102355Y-90062427D01*
X138102354Y-90062428D01*
X138022102Y-90192621D01*
X138013385Y-90206762D01*
X137998071Y-90252933D01*
X137964339Y-90354633D01*
X137957703Y-90374639D01*
X137957003Y-90381475D01*
X137957002Y-90381478D01*
X137955393Y-90397180D01*
X137947000Y-90479100D01*
X137947000Y-91279900D01*
X137947337Y-91283146D01*
X137947337Y-91283150D01*
X137955073Y-91357702D01*
X137957974Y-91385666D01*
X137960155Y-91392202D01*
X137960155Y-91392204D01*
X137997021Y-91502704D01*
X138013950Y-91553446D01*
X138107022Y-91703848D01*
X138232197Y-91828805D01*
X138382762Y-91921615D01*
X138434408Y-91938745D01*
X138451668Y-91944470D01*
X138510027Y-91984901D01*
X138537264Y-92050465D01*
X138538000Y-92064063D01*
X138538000Y-92780303D01*
X138517998Y-92848424D01*
X138464342Y-92894917D01*
X138451877Y-92899826D01*
X138404498Y-92915633D01*
X138404496Y-92915634D01*
X138397554Y-92917950D01*
X138391330Y-92921801D01*
X138391329Y-92921802D01*
X138325562Y-92962500D01*
X138247152Y-93011022D01*
X138122195Y-93136197D01*
X138029385Y-93286762D01*
X137973703Y-93454639D01*
X137973003Y-93461475D01*
X137973002Y-93461478D01*
X137969394Y-93496695D01*
X137963000Y-93559100D01*
X137963000Y-94359900D01*
X137963337Y-94363146D01*
X137963337Y-94363150D01*
X137972909Y-94455399D01*
X137973974Y-94465666D01*
X138029950Y-94633446D01*
X138123022Y-94783848D01*
X138182412Y-94843134D01*
X138209609Y-94870284D01*
X138243688Y-94932566D01*
X138238685Y-95003386D01*
X138209764Y-95048475D01*
X138175266Y-95083033D01*
X138122195Y-95136197D01*
X138118355Y-95142427D01*
X138118354Y-95142428D01*
X138036643Y-95274988D01*
X138029385Y-95286762D01*
X138027081Y-95293709D01*
X137981406Y-95431416D01*
X137973703Y-95454639D01*
X137973003Y-95461475D01*
X137973002Y-95461478D01*
X137970037Y-95490418D01*
X137963000Y-95559100D01*
X137963000Y-96359900D01*
X137963337Y-96363146D01*
X137963337Y-96363150D01*
X137966040Y-96389195D01*
X137973974Y-96465666D01*
X138029950Y-96633446D01*
X138123022Y-96783848D01*
X138248197Y-96908805D01*
X138254427Y-96912645D01*
X138254428Y-96912646D01*
X138290450Y-96934850D01*
X138398762Y-97001615D01*
X138451668Y-97019163D01*
X138510027Y-97059594D01*
X138537264Y-97125158D01*
X138538000Y-97138756D01*
X138538000Y-98231177D01*
X138517998Y-98299298D01*
X138464342Y-98345791D01*
X138425002Y-98356504D01*
X138417694Y-98357262D01*
X138417691Y-98357263D01*
X138410835Y-98357974D01*
X138404299Y-98360155D01*
X138404297Y-98360155D01*
X138322497Y-98387446D01*
X138243055Y-98413950D01*
X138092652Y-98507022D01*
X137967695Y-98632197D01*
X137963855Y-98638427D01*
X137963854Y-98638428D01*
X137884928Y-98766470D01*
X137874885Y-98782762D01*
X137860397Y-98826443D01*
X137824856Y-98933597D01*
X137819203Y-98950639D01*
X137808500Y-99055100D01*
X137808500Y-100080900D01*
X137808837Y-100084146D01*
X137808837Y-100084150D01*
X137813953Y-100133452D01*
X137819474Y-100186665D01*
X137875450Y-100354445D01*
X137968522Y-100504848D01*
X138093697Y-100629805D01*
X138099927Y-100633645D01*
X138099928Y-100633646D01*
X138237090Y-100718194D01*
X138244262Y-100722615D01*
X138324005Y-100749064D01*
X138405611Y-100776132D01*
X138405613Y-100776132D01*
X138412139Y-100778297D01*
X138418975Y-100778997D01*
X138418978Y-100778998D01*
X138462031Y-100783409D01*
X138516600Y-100789000D01*
X139867400Y-100789000D01*
X139870646Y-100788663D01*
X139870650Y-100788663D01*
X139966307Y-100778738D01*
X139966311Y-100778737D01*
X139973165Y-100778026D01*
X139979701Y-100775845D01*
X139979703Y-100775845D01*
X140111805Y-100731772D01*
X140140945Y-100722050D01*
X140291348Y-100628978D01*
X140416305Y-100503803D01*
X140433981Y-100475128D01*
X140505275Y-100359468D01*
X140505276Y-100359466D01*
X140509115Y-100353238D01*
X140564797Y-100185361D01*
X140568728Y-100147000D01*
X140570583Y-100128885D01*
X140575500Y-100080900D01*
X140575500Y-99055100D01*
X140564526Y-98949335D01*
X140559276Y-98933597D01*
X140510868Y-98788503D01*
X140508550Y-98781555D01*
X140415478Y-98631152D01*
X140290303Y-98506195D01*
X140224122Y-98465400D01*
X140145968Y-98417225D01*
X140145966Y-98417224D01*
X140139738Y-98413385D01*
X140036947Y-98379291D01*
X139978389Y-98359868D01*
X139978387Y-98359868D01*
X139971861Y-98357703D01*
X139965023Y-98357002D01*
X139965021Y-98357002D01*
X139949809Y-98355444D01*
X139918157Y-98352201D01*
X139852431Y-98325360D01*
X139811649Y-98267246D01*
X139805000Y-98226857D01*
X139805000Y-97138697D01*
X139825002Y-97070576D01*
X139878658Y-97024083D01*
X139891123Y-97019174D01*
X139938502Y-97003367D01*
X139938504Y-97003366D01*
X139945446Y-97001050D01*
X140052340Y-96934902D01*
X140089620Y-96911832D01*
X140095848Y-96907978D01*
X140220805Y-96782803D01*
X140289412Y-96671502D01*
X140309775Y-96638468D01*
X140309776Y-96638466D01*
X140313615Y-96632238D01*
X140350369Y-96521428D01*
X140367132Y-96470889D01*
X140367132Y-96470887D01*
X140369297Y-96464361D01*
X140380000Y-96359900D01*
X140380000Y-95559100D01*
X140379663Y-95555850D01*
X140369738Y-95460192D01*
X140369737Y-95460188D01*
X140369026Y-95453334D01*
X140350948Y-95399146D01*
X140315368Y-95292502D01*
X140313050Y-95285554D01*
X140219978Y-95135152D01*
X140133391Y-95048716D01*
X140099312Y-94986434D01*
X140104315Y-94915614D01*
X140133236Y-94870525D01*
X140215634Y-94787983D01*
X140220805Y-94782803D01*
X140260134Y-94719000D01*
X140300889Y-94652884D01*
X140353662Y-94605390D01*
X140408149Y-94593000D01*
X144251500Y-94593000D01*
X144319621Y-94613002D01*
X144366114Y-94666658D01*
X144377500Y-94719000D01*
X144377500Y-95085502D01*
X144380438Y-95122831D01*
X144397500Y-95181559D01*
X144424497Y-95274483D01*
X144426855Y-95282601D01*
X144433424Y-95293709D01*
X144507509Y-95418980D01*
X144507511Y-95418983D01*
X144511547Y-95425807D01*
X144629193Y-95543453D01*
X144636017Y-95547489D01*
X144636020Y-95547491D01*
X144736579Y-95606961D01*
X144772399Y-95628145D01*
X144780010Y-95630356D01*
X144780012Y-95630357D01*
X144832231Y-95645528D01*
X144932169Y-95674562D01*
X144938574Y-95675066D01*
X144938579Y-95675067D01*
X144967042Y-95677307D01*
X144967050Y-95677307D01*
X144969498Y-95677500D01*
X146752502Y-95677500D01*
X146754950Y-95677307D01*
X146754958Y-95677307D01*
X146783421Y-95675067D01*
X146783426Y-95675066D01*
X146789831Y-95674562D01*
X146889769Y-95645528D01*
X146941988Y-95630357D01*
X146941990Y-95630356D01*
X146949601Y-95628145D01*
X146985421Y-95606961D01*
X147085980Y-95547491D01*
X147085983Y-95547489D01*
X147092807Y-95543453D01*
X147210453Y-95425807D01*
X147214489Y-95418983D01*
X147214491Y-95418980D01*
X147288576Y-95293709D01*
X147295145Y-95282601D01*
X147297504Y-95274483D01*
X147324500Y-95181559D01*
X147341562Y-95122831D01*
X147344255Y-95088614D01*
X147369541Y-95022273D01*
X147426679Y-94980133D01*
X147469867Y-94972500D01*
X149202133Y-94972500D01*
X149270254Y-94992502D01*
X149316747Y-95046158D01*
X149327745Y-95088614D01*
X149330438Y-95122831D01*
X149347500Y-95181559D01*
X149374497Y-95274483D01*
X149376855Y-95282601D01*
X149380892Y-95289426D01*
X149381248Y-95290250D01*
X149389946Y-95360712D01*
X149354707Y-95429388D01*
X146441247Y-98342848D01*
X146432961Y-98350388D01*
X146426482Y-98354500D01*
X146421057Y-98360277D01*
X146379857Y-98404151D01*
X146377102Y-98406993D01*
X146357365Y-98426730D01*
X146354885Y-98429927D01*
X146347182Y-98438947D01*
X146316914Y-98471179D01*
X146313095Y-98478125D01*
X146313093Y-98478128D01*
X146307152Y-98488934D01*
X146296301Y-98505453D01*
X146283886Y-98521459D01*
X146280741Y-98528728D01*
X146280738Y-98528732D01*
X146266326Y-98562037D01*
X146261109Y-98572687D01*
X146239805Y-98611440D01*
X146235806Y-98627017D01*
X146234767Y-98631062D01*
X146228363Y-98649766D01*
X146220319Y-98668355D01*
X146219080Y-98676178D01*
X146219077Y-98676188D01*
X146213401Y-98712024D01*
X146210995Y-98723644D01*
X146200000Y-98766470D01*
X146200000Y-98786724D01*
X146198449Y-98806434D01*
X146195280Y-98826443D01*
X146196026Y-98834335D01*
X146199441Y-98870461D01*
X146200000Y-98882319D01*
X146200000Y-101891454D01*
X146179998Y-101959575D01*
X146140303Y-101998598D01*
X146021652Y-102072022D01*
X145896695Y-102197197D01*
X145893898Y-102201735D01*
X145836647Y-102242324D01*
X145765724Y-102245554D01*
X145704313Y-102209928D01*
X145696938Y-102201432D01*
X145688902Y-102191293D01*
X145574171Y-102076761D01*
X145562760Y-102067749D01*
X145424757Y-101982684D01*
X145411576Y-101976537D01*
X145257290Y-101925362D01*
X145243914Y-101922495D01*
X145149562Y-101912828D01*
X145143145Y-101912500D01*
X145030615Y-101912500D01*
X145015376Y-101916975D01*
X145014171Y-101918365D01*
X145012500Y-101926048D01*
X145012500Y-104360384D01*
X145016975Y-104375623D01*
X145018365Y-104376828D01*
X145026048Y-104378499D01*
X145143095Y-104378499D01*
X145149614Y-104378162D01*
X145245206Y-104368243D01*
X145258600Y-104365351D01*
X145412784Y-104313912D01*
X145425962Y-104307739D01*
X145563807Y-104222437D01*
X145575208Y-104213401D01*
X145689738Y-104098672D01*
X145696794Y-104089738D01*
X145754712Y-104048677D01*
X145825635Y-104045447D01*
X145887046Y-104081074D01*
X145893846Y-104088907D01*
X145897522Y-104094848D01*
X146022697Y-104219805D01*
X146028927Y-104223645D01*
X146028928Y-104223646D01*
X146166288Y-104308316D01*
X146173262Y-104312615D01*
X146253005Y-104339064D01*
X146334611Y-104366132D01*
X146334613Y-104366132D01*
X146341139Y-104368297D01*
X146347975Y-104368997D01*
X146347978Y-104368998D01*
X146391031Y-104373409D01*
X146445600Y-104379000D01*
X147221400Y-104379000D01*
X147224646Y-104378663D01*
X147224650Y-104378663D01*
X147320308Y-104368738D01*
X147320312Y-104368737D01*
X147327166Y-104368026D01*
X147333702Y-104365845D01*
X147333704Y-104365845D01*
X147465806Y-104321772D01*
X147494946Y-104312050D01*
X147645348Y-104218978D01*
X147770305Y-104093803D01*
X147863115Y-103943238D01*
X147918797Y-103775361D01*
X147920013Y-103763500D01*
X147923909Y-103725469D01*
X147929500Y-103670900D01*
X147929500Y-102620100D01*
X147929163Y-102616850D01*
X147919238Y-102521192D01*
X147919237Y-102521188D01*
X147918526Y-102514334D01*
X147862550Y-102346554D01*
X147769478Y-102196152D01*
X147644303Y-102071195D01*
X147526883Y-101998816D01*
X147479391Y-101946045D01*
X147467000Y-101891557D01*
X147467000Y-100985595D01*
X155789001Y-100985595D01*
X155789338Y-100992114D01*
X155799257Y-101087706D01*
X155802149Y-101101100D01*
X155853588Y-101255284D01*
X155859761Y-101268462D01*
X155945063Y-101406307D01*
X155954099Y-101417708D01*
X156068829Y-101532239D01*
X156080240Y-101541251D01*
X156218243Y-101626316D01*
X156231424Y-101632463D01*
X156385710Y-101683638D01*
X156399086Y-101686505D01*
X156493438Y-101696172D01*
X156499854Y-101696500D01*
X156699885Y-101696500D01*
X156715124Y-101692025D01*
X156716329Y-101690635D01*
X156718000Y-101682952D01*
X156718000Y-101678384D01*
X157226000Y-101678384D01*
X157230475Y-101693623D01*
X157231865Y-101694828D01*
X157239548Y-101696499D01*
X157444095Y-101696499D01*
X157450614Y-101696162D01*
X157546206Y-101686243D01*
X157559600Y-101683351D01*
X157713784Y-101631912D01*
X157726962Y-101625739D01*
X157864807Y-101540437D01*
X157876208Y-101531401D01*
X157990739Y-101416671D01*
X157999751Y-101405260D01*
X158084816Y-101267257D01*
X158090963Y-101254076D01*
X158142138Y-101099790D01*
X158145005Y-101086414D01*
X158154672Y-100992062D01*
X158155000Y-100985646D01*
X158155000Y-100673115D01*
X158150525Y-100657876D01*
X158149135Y-100656671D01*
X158141452Y-100655000D01*
X157244115Y-100655000D01*
X157228876Y-100659475D01*
X157227671Y-100660865D01*
X157226000Y-100668548D01*
X157226000Y-101678384D01*
X156718000Y-101678384D01*
X156718000Y-100673115D01*
X156713525Y-100657876D01*
X156712135Y-100656671D01*
X156704452Y-100655000D01*
X155807116Y-100655000D01*
X155791877Y-100659475D01*
X155790672Y-100660865D01*
X155789001Y-100668548D01*
X155789001Y-100985595D01*
X147467000Y-100985595D01*
X147467000Y-99161094D01*
X147487002Y-99092973D01*
X147503905Y-99071999D01*
X150861499Y-95714405D01*
X150923811Y-95680379D01*
X150950594Y-95677500D01*
X151702502Y-95677500D01*
X151704950Y-95677307D01*
X151704958Y-95677307D01*
X151733421Y-95675067D01*
X151733426Y-95675066D01*
X151739831Y-95674562D01*
X151839769Y-95645528D01*
X151891988Y-95630357D01*
X151891990Y-95630356D01*
X151899601Y-95628145D01*
X151935421Y-95606961D01*
X152035980Y-95547491D01*
X152035983Y-95547489D01*
X152042807Y-95543453D01*
X152059405Y-95526855D01*
X152121717Y-95492829D01*
X152192532Y-95497894D01*
X152249368Y-95540441D01*
X152274179Y-95606961D01*
X152274500Y-95615950D01*
X152274500Y-98865476D01*
X152254498Y-98933597D01*
X152242142Y-98949779D01*
X152168960Y-99031056D01*
X152073473Y-99196444D01*
X152014458Y-99378072D01*
X151994496Y-99568000D01*
X152014458Y-99757928D01*
X152073473Y-99939556D01*
X152168960Y-100104944D01*
X152173378Y-100109851D01*
X152173379Y-100109852D01*
X152248429Y-100193203D01*
X152296747Y-100246866D01*
X152451248Y-100359118D01*
X152457276Y-100361802D01*
X152457278Y-100361803D01*
X152619681Y-100434109D01*
X152625712Y-100436794D01*
X152719112Y-100456647D01*
X152806056Y-100475128D01*
X152806061Y-100475128D01*
X152812513Y-100476500D01*
X153003487Y-100476500D01*
X153009939Y-100475128D01*
X153009944Y-100475128D01*
X153096888Y-100456647D01*
X153190288Y-100436794D01*
X153196319Y-100434109D01*
X153358722Y-100361803D01*
X153358724Y-100361802D01*
X153364752Y-100359118D01*
X153519253Y-100246866D01*
X153567571Y-100193203D01*
X153625484Y-100128885D01*
X155789000Y-100128885D01*
X155793475Y-100144124D01*
X155794865Y-100145329D01*
X155802548Y-100147000D01*
X156699885Y-100147000D01*
X156715124Y-100142525D01*
X156716329Y-100141135D01*
X156718000Y-100133452D01*
X156718000Y-100128885D01*
X157226000Y-100128885D01*
X157230475Y-100144124D01*
X157231865Y-100145329D01*
X157239548Y-100147000D01*
X158136884Y-100147000D01*
X158152123Y-100142525D01*
X158153328Y-100141135D01*
X158154999Y-100133452D01*
X158154999Y-99816405D01*
X158154662Y-99809886D01*
X158144743Y-99714294D01*
X158141851Y-99700900D01*
X158090412Y-99546716D01*
X158084239Y-99533538D01*
X157998937Y-99395693D01*
X157989901Y-99384292D01*
X157875171Y-99269761D01*
X157863760Y-99260749D01*
X157725757Y-99175684D01*
X157712576Y-99169537D01*
X157558290Y-99118362D01*
X157544914Y-99115495D01*
X157450562Y-99105828D01*
X157444145Y-99105500D01*
X157244115Y-99105500D01*
X157228876Y-99109975D01*
X157227671Y-99111365D01*
X157226000Y-99119048D01*
X157226000Y-100128885D01*
X156718000Y-100128885D01*
X156718000Y-99123616D01*
X156713525Y-99108377D01*
X156712135Y-99107172D01*
X156704452Y-99105501D01*
X156499905Y-99105501D01*
X156493386Y-99105838D01*
X156397794Y-99115757D01*
X156384400Y-99118649D01*
X156230216Y-99170088D01*
X156217038Y-99176261D01*
X156079193Y-99261563D01*
X156067792Y-99270599D01*
X155953261Y-99385329D01*
X155944249Y-99396740D01*
X155859184Y-99534743D01*
X155853037Y-99547924D01*
X155801862Y-99702210D01*
X155798995Y-99715586D01*
X155789328Y-99809938D01*
X155789000Y-99816355D01*
X155789000Y-100128885D01*
X153625484Y-100128885D01*
X153642621Y-100109852D01*
X153642622Y-100109851D01*
X153647040Y-100104944D01*
X153742527Y-99939556D01*
X153801542Y-99757928D01*
X153821504Y-99568000D01*
X153801542Y-99378072D01*
X153742527Y-99196444D01*
X153647040Y-99031056D01*
X153573863Y-98949785D01*
X153543147Y-98885779D01*
X153541500Y-98865476D01*
X153541500Y-94358500D01*
X153561502Y-94290379D01*
X153615158Y-94243886D01*
X153667500Y-94232500D01*
X155637500Y-94232500D01*
X155705621Y-94252502D01*
X155752114Y-94306158D01*
X155763500Y-94358500D01*
X155763500Y-94846400D01*
X155774474Y-94952166D01*
X155776655Y-94958702D01*
X155776655Y-94958704D01*
X155805832Y-95046158D01*
X155830450Y-95119946D01*
X155923522Y-95270348D01*
X156048697Y-95395305D01*
X156054927Y-95399145D01*
X156054928Y-95399146D01*
X156153963Y-95460192D01*
X156199262Y-95488115D01*
X156252168Y-95505663D01*
X156310527Y-95546094D01*
X156337764Y-95611658D01*
X156338500Y-95625256D01*
X156338500Y-96167643D01*
X156318498Y-96235764D01*
X156264842Y-96282257D01*
X156252378Y-96287166D01*
X156230005Y-96294630D01*
X156229998Y-96294633D01*
X156223054Y-96296950D01*
X156072652Y-96390022D01*
X155947695Y-96515197D01*
X155943855Y-96521427D01*
X155943854Y-96521428D01*
X155870965Y-96639676D01*
X155854885Y-96665762D01*
X155852581Y-96672709D01*
X155817784Y-96777620D01*
X155799203Y-96833639D01*
X155788500Y-96938100D01*
X155788500Y-98113900D01*
X155799474Y-98219666D01*
X155855450Y-98387446D01*
X155948522Y-98537848D01*
X156073697Y-98662805D01*
X156079927Y-98666645D01*
X156079928Y-98666646D01*
X156217090Y-98751194D01*
X156224262Y-98755615D01*
X156283683Y-98775324D01*
X156385611Y-98809132D01*
X156385613Y-98809132D01*
X156392139Y-98811297D01*
X156398975Y-98811997D01*
X156398978Y-98811998D01*
X156442031Y-98816409D01*
X156496600Y-98822000D01*
X157447400Y-98822000D01*
X157450646Y-98821663D01*
X157450650Y-98821663D01*
X157546308Y-98811738D01*
X157546312Y-98811737D01*
X157553166Y-98811026D01*
X157559702Y-98808845D01*
X157559704Y-98808845D01*
X157709739Y-98758789D01*
X157720946Y-98755050D01*
X157871348Y-98661978D01*
X157996305Y-98536803D01*
X158011985Y-98511366D01*
X158085275Y-98392468D01*
X158085276Y-98392466D01*
X158089115Y-98386238D01*
X158144797Y-98218361D01*
X158155500Y-98113900D01*
X158155500Y-96938100D01*
X158152775Y-96911832D01*
X158145238Y-96839192D01*
X158145237Y-96839188D01*
X158144526Y-96832334D01*
X158088550Y-96664554D01*
X157995478Y-96514152D01*
X157870303Y-96389195D01*
X157864072Y-96385354D01*
X157725968Y-96300225D01*
X157725966Y-96300224D01*
X157719738Y-96296385D01*
X157691830Y-96287128D01*
X157633472Y-96246697D01*
X157606236Y-96181133D01*
X157605500Y-96167536D01*
X157605500Y-95625197D01*
X157625502Y-95557076D01*
X157679158Y-95510583D01*
X157691623Y-95505674D01*
X157739002Y-95489867D01*
X157739004Y-95489866D01*
X157745946Y-95487550D01*
X157799130Y-95454639D01*
X157890120Y-95398332D01*
X157896348Y-95394478D01*
X158021305Y-95269303D01*
X158025146Y-95263072D01*
X158110275Y-95124968D01*
X158110276Y-95124966D01*
X158114115Y-95118738D01*
X158152375Y-95003386D01*
X158167632Y-94957389D01*
X158167632Y-94957387D01*
X158169797Y-94950861D01*
X158171672Y-94932566D01*
X158180172Y-94849598D01*
X158180500Y-94846400D01*
X158180500Y-94045600D01*
X158169526Y-93939834D01*
X158113550Y-93772054D01*
X158020478Y-93621652D01*
X157933891Y-93535216D01*
X157899812Y-93472934D01*
X157904815Y-93402114D01*
X157933736Y-93357025D01*
X158016134Y-93274483D01*
X158021305Y-93269303D01*
X158034980Y-93247118D01*
X158110275Y-93124968D01*
X158110276Y-93124966D01*
X158114115Y-93118738D01*
X158157735Y-92987226D01*
X158167632Y-92957389D01*
X158167632Y-92957387D01*
X158169797Y-92950861D01*
X158172775Y-92921802D01*
X158180172Y-92849598D01*
X158180500Y-92846400D01*
X158180500Y-92045600D01*
X158169526Y-91939834D01*
X158160957Y-91914148D01*
X158115868Y-91779002D01*
X158113550Y-91772054D01*
X158020478Y-91621652D01*
X157895303Y-91496695D01*
X157889072Y-91492854D01*
X157750968Y-91407725D01*
X157750966Y-91407724D01*
X157744738Y-91403885D01*
X157691832Y-91386337D01*
X157633473Y-91345906D01*
X157606236Y-91280342D01*
X157605500Y-91266744D01*
X157605500Y-91085197D01*
X157625502Y-91017076D01*
X157679158Y-90970583D01*
X157691623Y-90965674D01*
X157739002Y-90949867D01*
X157739004Y-90949866D01*
X157745946Y-90947550D01*
X157852129Y-90881842D01*
X157890120Y-90858332D01*
X157896348Y-90854478D01*
X158021305Y-90729303D01*
X158068332Y-90653012D01*
X158110275Y-90584968D01*
X158110276Y-90584966D01*
X158114115Y-90578738D01*
X158169797Y-90410861D01*
X158171919Y-90390156D01*
X158180172Y-90309598D01*
X158180500Y-90306400D01*
X158180500Y-89505600D01*
X158169526Y-89399834D01*
X158166981Y-89392204D01*
X158115868Y-89239002D01*
X158113550Y-89232054D01*
X158020478Y-89081652D01*
X157933891Y-88995216D01*
X157899812Y-88932934D01*
X157904815Y-88862114D01*
X157933736Y-88817025D01*
X158016134Y-88734483D01*
X158021305Y-88729303D01*
X158114115Y-88578738D01*
X158169797Y-88410861D01*
X158180500Y-88306400D01*
X158180500Y-87505600D01*
X158180163Y-87502350D01*
X158170238Y-87406692D01*
X158170237Y-87406688D01*
X158169526Y-87399834D01*
X158113550Y-87232054D01*
X158020478Y-87081652D01*
X157895303Y-86956695D01*
X157889072Y-86952854D01*
X157750968Y-86867725D01*
X157750966Y-86867724D01*
X157744738Y-86863885D01*
X157584254Y-86810655D01*
X157583389Y-86810368D01*
X157583387Y-86810368D01*
X157576861Y-86808203D01*
X157570025Y-86807503D01*
X157570022Y-86807502D01*
X157526969Y-86803091D01*
X157472400Y-86797500D01*
X156471600Y-86797500D01*
X156468354Y-86797837D01*
X156468350Y-86797837D01*
X156372692Y-86807762D01*
X156372688Y-86807763D01*
X156365834Y-86808474D01*
X156359298Y-86810655D01*
X156359296Y-86810655D01*
X156227194Y-86854728D01*
X156198054Y-86864450D01*
X156047652Y-86957522D01*
X155922695Y-87082697D01*
X155918855Y-87088927D01*
X155918854Y-87088928D01*
X155916903Y-87092094D01*
X155829885Y-87233262D01*
X155774203Y-87401139D01*
X155773503Y-87407975D01*
X155773502Y-87407978D01*
X155770052Y-87441654D01*
X155763500Y-87505600D01*
X155763500Y-87983972D01*
X155743498Y-88052093D01*
X155726595Y-88073067D01*
X153540067Y-90259595D01*
X153477755Y-90293621D01*
X153450972Y-90296500D01*
X151905985Y-90296500D01*
X151870832Y-90291497D01*
X151739831Y-90253438D01*
X151733426Y-90252934D01*
X151733421Y-90252933D01*
X151704958Y-90250693D01*
X151704950Y-90250693D01*
X151702502Y-90250500D01*
X151699500Y-90250500D01*
X151699418Y-90250476D01*
X151697561Y-90250403D01*
X151697579Y-90249936D01*
X151631379Y-90230498D01*
X151584886Y-90176842D01*
X151573500Y-90124500D01*
X151573500Y-83314376D01*
X151574933Y-83295426D01*
X151577124Y-83281027D01*
X151577124Y-83281023D01*
X151578224Y-83273793D01*
X151573915Y-83220814D01*
X151573500Y-83210600D01*
X151573500Y-83202475D01*
X151570193Y-83174110D01*
X151569760Y-83169735D01*
X151564403Y-83103868D01*
X151563810Y-83096574D01*
X151561556Y-83089617D01*
X151560367Y-83083663D01*
X151558949Y-83077665D01*
X151558101Y-83070393D01*
X151533052Y-83001383D01*
X151531635Y-82997256D01*
X151511268Y-82934386D01*
X151511267Y-82934384D01*
X151509013Y-82927426D01*
X151505217Y-82921170D01*
X151502667Y-82915601D01*
X151499930Y-82910137D01*
X151497434Y-82903259D01*
X151457164Y-82841838D01*
X151454844Y-82838159D01*
X151442251Y-82817405D01*
X151416773Y-82775419D01*
X151409333Y-82766995D01*
X151409362Y-82766969D01*
X151406762Y-82764038D01*
X151403958Y-82760684D01*
X151399946Y-82754565D01*
X151343413Y-82701011D01*
X151340972Y-82698634D01*
X150381405Y-81739067D01*
X150347379Y-81676755D01*
X150344500Y-81649972D01*
X150344500Y-79223866D01*
X150337745Y-79161684D01*
X150286615Y-79025295D01*
X150199261Y-78908739D01*
X150082705Y-78821385D01*
X149946316Y-78770255D01*
X149884134Y-78763500D01*
X146787866Y-78763500D01*
X146725684Y-78770255D01*
X146589295Y-78821385D01*
X146472739Y-78908739D01*
X146385385Y-79025295D01*
X146334255Y-79161684D01*
X146327500Y-79223866D01*
X146327500Y-80012500D01*
X146307498Y-80080621D01*
X146253842Y-80127114D01*
X146201500Y-80138500D01*
X141944767Y-80138500D01*
X141933584Y-80137973D01*
X141926091Y-80136298D01*
X141918165Y-80136547D01*
X141918164Y-80136547D01*
X141858001Y-80138438D01*
X141854043Y-80138500D01*
X141826144Y-80138500D01*
X141822154Y-80139004D01*
X141810320Y-80139936D01*
X141766111Y-80141326D01*
X141758497Y-80143538D01*
X141758492Y-80143539D01*
X141746659Y-80146977D01*
X141727296Y-80150988D01*
X141707203Y-80153526D01*
X141699836Y-80156443D01*
X141699831Y-80156444D01*
X141666092Y-80169802D01*
X141654865Y-80173646D01*
X141612407Y-80185982D01*
X141605581Y-80190019D01*
X141594972Y-80196293D01*
X141577224Y-80204988D01*
X141558383Y-80212448D01*
X141551967Y-80217110D01*
X141551966Y-80217110D01*
X141522613Y-80238436D01*
X141512693Y-80244952D01*
X141481465Y-80263420D01*
X141481462Y-80263422D01*
X141474638Y-80267458D01*
X141460317Y-80281779D01*
X141445284Y-80294619D01*
X141428893Y-80306528D01*
X141423842Y-80312634D01*
X141400702Y-80340605D01*
X141392712Y-80349384D01*
X139517500Y-82224595D01*
X139455188Y-82258621D01*
X139428405Y-82261500D01*
X138480100Y-82261500D01*
X138476854Y-82261837D01*
X138476850Y-82261837D01*
X138381193Y-82271762D01*
X138381189Y-82271763D01*
X138374335Y-82272474D01*
X138367799Y-82274655D01*
X138367797Y-82274655D01*
X138241723Y-82316717D01*
X138206555Y-82328450D01*
X138056152Y-82421522D01*
X137931195Y-82546697D01*
X137838385Y-82697262D01*
X137821048Y-82749533D01*
X137790418Y-82841880D01*
X137782703Y-82865139D01*
X137772000Y-82969600D01*
X137772000Y-83995400D01*
X137772337Y-83998646D01*
X137772337Y-83998650D01*
X137779801Y-84070582D01*
X137782974Y-84101165D01*
X137838950Y-84268945D01*
X137932022Y-84419348D01*
X138057197Y-84544305D01*
X138063427Y-84548145D01*
X138063428Y-84548146D01*
X138200590Y-84632694D01*
X138207762Y-84637115D01*
X138287505Y-84663564D01*
X138369111Y-84690632D01*
X138369113Y-84690632D01*
X138375639Y-84692797D01*
X138382475Y-84693497D01*
X138382478Y-84693498D01*
X138425531Y-84697909D01*
X138480100Y-84703500D01*
X139830900Y-84703500D01*
X139834146Y-84703163D01*
X139834150Y-84703163D01*
X139929807Y-84693238D01*
X139929811Y-84693237D01*
X139936665Y-84692526D01*
X139943201Y-84690345D01*
X139943203Y-84690345D01*
X140075305Y-84646272D01*
X140104445Y-84636550D01*
X140254848Y-84543478D01*
X140379805Y-84418303D01*
X140472615Y-84267738D01*
X140473689Y-84264500D01*
X147112584Y-84264500D01*
X147118980Y-84275770D01*
X148323188Y-85479978D01*
X148337132Y-85487592D01*
X148338965Y-85487461D01*
X148345580Y-85483210D01*
X149552604Y-84276186D01*
X149559795Y-84263017D01*
X149552473Y-84252780D01*
X149505233Y-84214115D01*
X149498261Y-84209160D01*
X149272122Y-84070582D01*
X149264552Y-84066624D01*
X149021704Y-83960022D01*
X149013644Y-83957120D01*
X148758592Y-83884467D01*
X148750214Y-83882685D01*
X148487656Y-83845318D01*
X148479111Y-83844691D01*
X148213908Y-83843302D01*
X148205374Y-83843839D01*
X147942433Y-83878456D01*
X147934035Y-83880149D01*
X147678238Y-83950127D01*
X147670143Y-83952946D01*
X147426199Y-84056997D01*
X147418577Y-84060881D01*
X147191013Y-84197075D01*
X147183981Y-84201962D01*
X147121053Y-84252377D01*
X147112584Y-84264500D01*
X140473689Y-84264500D01*
X140528297Y-84099861D01*
X140531703Y-84066624D01*
X140538672Y-83998598D01*
X140539000Y-83995400D01*
X140539000Y-83047094D01*
X140559002Y-82978973D01*
X140575905Y-82957999D01*
X142091500Y-81442405D01*
X142153812Y-81408379D01*
X142180595Y-81405500D01*
X146201500Y-81405500D01*
X146269621Y-81425502D01*
X146316114Y-81479158D01*
X146327500Y-81531500D01*
X146327500Y-82320134D01*
X146334255Y-82382316D01*
X146385385Y-82518705D01*
X146472739Y-82635261D01*
X146589295Y-82722615D01*
X146725684Y-82773745D01*
X146787866Y-82780500D01*
X149213972Y-82780500D01*
X149282093Y-82800502D01*
X149303067Y-82817405D01*
X150011595Y-83525933D01*
X150045621Y-83588245D01*
X150048500Y-83615028D01*
X150048500Y-84499759D01*
X150028498Y-84567880D01*
X149974842Y-84614373D01*
X149940782Y-84619992D01*
X149912121Y-84635089D01*
X148708022Y-85839188D01*
X148700408Y-85853132D01*
X148700539Y-85854965D01*
X148704790Y-85861580D01*
X149911730Y-87068520D01*
X149936375Y-87081978D01*
X149982883Y-87092094D01*
X150033086Y-87142295D01*
X150048500Y-87202683D01*
X150048500Y-90124500D01*
X150028498Y-90192621D01*
X149974842Y-90239114D01*
X149924426Y-90250081D01*
X149924439Y-90250403D01*
X149922617Y-90250474D01*
X149922500Y-90250500D01*
X149919498Y-90250500D01*
X149917050Y-90250693D01*
X149917042Y-90250693D01*
X149888579Y-90252933D01*
X149888574Y-90252934D01*
X149882169Y-90253438D01*
X149782231Y-90282472D01*
X149730012Y-90297643D01*
X149730010Y-90297644D01*
X149722399Y-90299855D01*
X149715572Y-90303892D01*
X149715573Y-90303892D01*
X149586020Y-90380509D01*
X149586017Y-90380511D01*
X149579193Y-90384547D01*
X149461547Y-90502193D01*
X149457511Y-90509017D01*
X149457509Y-90509020D01*
X149420387Y-90571791D01*
X149376855Y-90645399D01*
X149374644Y-90653010D01*
X149374643Y-90653012D01*
X149359472Y-90705231D01*
X149330438Y-90805169D01*
X149329934Y-90811574D01*
X149329933Y-90811579D01*
X149327745Y-90839386D01*
X149302459Y-90905727D01*
X149245321Y-90947867D01*
X149202133Y-90955500D01*
X147469362Y-90955500D01*
X147401241Y-90935498D01*
X147354748Y-90881842D01*
X147343750Y-90839381D01*
X147341570Y-90811664D01*
X147339270Y-90799069D01*
X147296893Y-90653210D01*
X147290648Y-90638779D01*
X147214089Y-90509322D01*
X147204449Y-90496896D01*
X147098104Y-90390551D01*
X147085678Y-90380911D01*
X146956221Y-90304352D01*
X146941790Y-90298107D01*
X146795935Y-90255731D01*
X146783333Y-90253430D01*
X146754916Y-90251193D01*
X146749986Y-90251000D01*
X146133115Y-90251000D01*
X146117876Y-90255475D01*
X146116671Y-90256865D01*
X146115000Y-90264548D01*
X146115000Y-91187000D01*
X146094998Y-91255121D01*
X146041342Y-91301614D01*
X145989000Y-91313000D01*
X144399122Y-91313000D01*
X144385591Y-91316973D01*
X144384456Y-91324871D01*
X144425107Y-91464790D01*
X144431352Y-91479221D01*
X144472820Y-91549340D01*
X144490279Y-91618156D01*
X144467762Y-91685488D01*
X144412418Y-91729957D01*
X144341817Y-91737445D01*
X144290305Y-91715415D01*
X144226094Y-91668763D01*
X144226093Y-91668762D01*
X144220752Y-91664882D01*
X144214724Y-91662198D01*
X144214722Y-91662197D01*
X144052319Y-91589891D01*
X144052318Y-91589891D01*
X144046288Y-91587206D01*
X143952887Y-91567353D01*
X143865944Y-91548872D01*
X143865939Y-91548872D01*
X143859487Y-91547500D01*
X143668513Y-91547500D01*
X143662061Y-91548872D01*
X143662056Y-91548872D01*
X143575113Y-91567353D01*
X143481712Y-91587206D01*
X143475682Y-91589891D01*
X143475681Y-91589891D01*
X143313278Y-91662197D01*
X143313276Y-91662198D01*
X143307248Y-91664882D01*
X143152747Y-91777134D01*
X143024960Y-91919056D01*
X142929473Y-92084444D01*
X142870458Y-92266072D01*
X142850496Y-92456000D01*
X142870458Y-92645928D01*
X142929473Y-92827556D01*
X142932776Y-92833278D01*
X142932777Y-92833279D01*
X142941521Y-92848424D01*
X143024960Y-92992944D01*
X143029378Y-92997851D01*
X143029379Y-92997852D01*
X143135481Y-93115690D01*
X143166198Y-93179697D01*
X143157434Y-93250151D01*
X143111971Y-93304682D01*
X143041845Y-93326000D01*
X140408281Y-93326000D01*
X140340160Y-93305998D01*
X140301137Y-93266303D01*
X140223832Y-93141380D01*
X140219978Y-93135152D01*
X140094803Y-93010195D01*
X140019861Y-92964000D01*
X139950468Y-92921225D01*
X139950466Y-92921224D01*
X139944238Y-92917385D01*
X139891332Y-92899837D01*
X139832973Y-92859406D01*
X139805736Y-92793842D01*
X139805000Y-92780244D01*
X139805000Y-92053359D01*
X139825002Y-91985238D01*
X139878658Y-91938745D01*
X139891123Y-91933836D01*
X139922501Y-91923367D01*
X139929446Y-91921050D01*
X139940600Y-91914148D01*
X140073620Y-91831832D01*
X140079848Y-91827978D01*
X140204805Y-91702803D01*
X140235049Y-91653739D01*
X140293775Y-91558468D01*
X140293776Y-91558466D01*
X140297615Y-91552238D01*
X140346821Y-91403885D01*
X140351132Y-91390889D01*
X140351132Y-91390887D01*
X140353297Y-91384361D01*
X140356029Y-91357702D01*
X140359392Y-91324871D01*
X140364000Y-91279900D01*
X140364000Y-90787605D01*
X144386061Y-90787605D01*
X144386101Y-90801706D01*
X144393370Y-90805000D01*
X145588885Y-90805000D01*
X145604124Y-90800525D01*
X145605329Y-90799135D01*
X145607000Y-90791452D01*
X145607000Y-90269116D01*
X145602525Y-90253877D01*
X145601135Y-90252672D01*
X145593452Y-90251001D01*
X144972017Y-90251001D01*
X144967080Y-90251195D01*
X144938664Y-90253430D01*
X144926069Y-90255730D01*
X144780210Y-90298107D01*
X144765779Y-90304352D01*
X144636322Y-90380911D01*
X144623896Y-90390551D01*
X144517551Y-90496896D01*
X144507911Y-90509322D01*
X144431352Y-90638779D01*
X144425107Y-90653210D01*
X144386061Y-90787605D01*
X140364000Y-90787605D01*
X140364000Y-90479100D01*
X140363663Y-90475850D01*
X140353738Y-90380192D01*
X140353737Y-90380188D01*
X140353026Y-90373334D01*
X140328512Y-90299855D01*
X140299368Y-90212502D01*
X140297050Y-90205554D01*
X140203978Y-90055152D01*
X140117391Y-89968716D01*
X140083312Y-89906434D01*
X140088315Y-89835614D01*
X140117236Y-89790525D01*
X140199634Y-89707983D01*
X140204805Y-89702803D01*
X140297615Y-89552238D01*
X140348165Y-89399834D01*
X140351132Y-89390889D01*
X140351132Y-89390887D01*
X140353297Y-89384361D01*
X140364000Y-89279900D01*
X140364000Y-88479100D01*
X140353026Y-88373334D01*
X140297050Y-88205554D01*
X140203978Y-88055152D01*
X140078803Y-87930195D01*
X139981900Y-87870463D01*
X139934408Y-87817692D01*
X139922984Y-87747620D01*
X139951258Y-87682497D01*
X140008140Y-87643681D01*
X140097492Y-87613870D01*
X140097494Y-87613869D01*
X140104445Y-87611550D01*
X140254848Y-87518478D01*
X140331538Y-87441654D01*
X147111618Y-87441654D01*
X147118673Y-87451627D01*
X147149679Y-87477551D01*
X147156598Y-87482579D01*
X147381272Y-87623515D01*
X147388807Y-87627556D01*
X147630520Y-87736694D01*
X147638551Y-87739680D01*
X147892832Y-87815002D01*
X147901184Y-87816869D01*
X148163340Y-87856984D01*
X148171874Y-87857700D01*
X148437045Y-87861867D01*
X148445596Y-87861418D01*
X148708883Y-87829557D01*
X148717284Y-87827955D01*
X148973824Y-87760653D01*
X148981926Y-87757926D01*
X149226949Y-87656434D01*
X149234617Y-87652628D01*
X149463598Y-87518822D01*
X149470679Y-87514009D01*
X149550655Y-87451301D01*
X149559125Y-87439442D01*
X149552608Y-87427818D01*
X148348812Y-86224022D01*
X148334868Y-86216408D01*
X148333035Y-86216539D01*
X148326420Y-86220790D01*
X147118910Y-87428300D01*
X147111618Y-87441654D01*
X140331538Y-87441654D01*
X140379805Y-87393303D01*
X140472615Y-87242738D01*
X140525698Y-87082697D01*
X140526132Y-87081389D01*
X140526132Y-87081387D01*
X140528297Y-87074861D01*
X140539000Y-86970400D01*
X140539000Y-85944600D01*
X140538663Y-85941350D01*
X140528738Y-85845693D01*
X140528737Y-85845689D01*
X140528026Y-85838835D01*
X140526815Y-85835204D01*
X146323665Y-85835204D01*
X146338932Y-86099969D01*
X146340005Y-86108470D01*
X146391065Y-86368722D01*
X146393276Y-86376974D01*
X146479184Y-86627894D01*
X146482499Y-86635779D01*
X146601664Y-86872713D01*
X146606020Y-86880079D01*
X146735347Y-87068250D01*
X146745601Y-87076594D01*
X146759342Y-87069448D01*
X147963978Y-85864812D01*
X147971592Y-85850868D01*
X147971461Y-85849035D01*
X147967210Y-85842420D01*
X146759814Y-84635024D01*
X146747804Y-84628466D01*
X146736064Y-84637434D01*
X146627935Y-84787911D01*
X146623418Y-84795196D01*
X146499325Y-85029567D01*
X146495839Y-85037395D01*
X146404700Y-85286446D01*
X146402311Y-85294670D01*
X146345812Y-85553795D01*
X146344563Y-85562250D01*
X146323754Y-85826653D01*
X146323665Y-85835204D01*
X140526815Y-85835204D01*
X140472050Y-85671055D01*
X140378978Y-85520652D01*
X140253803Y-85395695D01*
X140247572Y-85391854D01*
X140109468Y-85306725D01*
X140109466Y-85306724D01*
X140103238Y-85302885D01*
X139942754Y-85249655D01*
X139941889Y-85249368D01*
X139941887Y-85249368D01*
X139935361Y-85247203D01*
X139928525Y-85246503D01*
X139928522Y-85246502D01*
X139885469Y-85242091D01*
X139830900Y-85236500D01*
X138480100Y-85236500D01*
X138476854Y-85236837D01*
X138476850Y-85236837D01*
X138381193Y-85246762D01*
X138381189Y-85246763D01*
X138374335Y-85247474D01*
X138367799Y-85249655D01*
X138367797Y-85249655D01*
X138257522Y-85286446D01*
X138206555Y-85303450D01*
X138056152Y-85396522D01*
X137931195Y-85521697D01*
X137927355Y-85527927D01*
X137927354Y-85527928D01*
X137906198Y-85562250D01*
X137838385Y-85672262D01*
X137782703Y-85840139D01*
X137782003Y-85846975D01*
X137782002Y-85846978D01*
X137781372Y-85853132D01*
X137772000Y-85944600D01*
X137772000Y-86970400D01*
X137160500Y-86970400D01*
X137160500Y-77850500D01*
X137180502Y-77782379D01*
X137234158Y-77735886D01*
X137286500Y-77724500D01*
X158877500Y-77724500D01*
X158945621Y-77744502D01*
G37*
%TD.AperFunction*%
%TD*%
M02*
